<mxfile host="app.diagrams.net" agent="Mozilla/5.0 (Windows NT 10.0; Win64; x64) AppleWebKit/537.36 (KHTML, like Gecko) Chrome/135.0.0.0 Safari/537.36" version="26.2.14">
  <diagram id="ExRd747YodB1tS0hdPxh" name="Page-1">
    <mxGraphModel dx="1042" dy="562" grid="1" gridSize="10" guides="1" tooltips="1" connect="1" arrows="1" fold="1" page="1" pageScale="1" pageWidth="850" pageHeight="1100" math="0" shadow="0">
      <root>
        <mxCell id="0" />
        <mxCell id="1" parent="0" />
        <mxCell id="kQrc4dePowJOGRrl5MvS-1" value="&lt;b&gt;&lt;font style=&quot;font-size: 20px;&quot;&gt;course&lt;/font&gt;&lt;/b&gt;" style="whiteSpace=wrap;html=1;align=center;" vertex="1" parent="1">
          <mxGeometry x="200" y="270" width="100" height="40" as="geometry" />
        </mxCell>
        <mxCell id="kQrc4dePowJOGRrl5MvS-2" value="soft_prerequisite" style="ellipse;whiteSpace=wrap;html=1;align=center;" vertex="1" parent="1">
          <mxGeometry x="90" y="350" width="100" height="40" as="geometry" />
        </mxCell>
        <mxCell id="kQrc4dePowJOGRrl5MvS-3" value="&lt;u&gt;course_code&lt;/u&gt;" style="ellipse;whiteSpace=wrap;html=1;align=center;" vertex="1" parent="1">
          <mxGeometry x="300" y="350" width="100" height="40" as="geometry" />
        </mxCell>
        <mxCell id="kQrc4dePowJOGRrl5MvS-4" value="pre_requisite" style="ellipse;whiteSpace=wrap;html=1;align=center;" vertex="1" parent="1">
          <mxGeometry x="60" y="280" width="100" height="40" as="geometry" />
        </mxCell>
        <mxCell id="kQrc4dePowJOGRrl5MvS-5" value="course_title" style="ellipse;whiteSpace=wrap;html=1;align=center;" vertex="1" parent="1">
          <mxGeometry x="270" y="180" width="100" height="40" as="geometry" />
        </mxCell>
        <mxCell id="kQrc4dePowJOGRrl5MvS-6" value="lab" style="ellipse;whiteSpace=wrap;html=1;align=center;" vertex="1" parent="1">
          <mxGeometry x="60" y="220" width="100" height="40" as="geometry" />
        </mxCell>
        <mxCell id="kQrc4dePowJOGRrl5MvS-7" value="credit" style="ellipse;whiteSpace=wrap;html=1;align=center;" vertex="1" parent="1">
          <mxGeometry x="150" y="180" width="100" height="40" as="geometry" />
        </mxCell>
        <mxCell id="kQrc4dePowJOGRrl5MvS-8" value="&lt;b&gt;&lt;font style=&quot;font-size: 20px;&quot;&gt;user&lt;/font&gt;&lt;/b&gt;" style="whiteSpace=wrap;html=1;align=center;" vertex="1" parent="1">
          <mxGeometry x="590" y="270" width="100" height="40" as="geometry" />
        </mxCell>
        <mxCell id="kQrc4dePowJOGRrl5MvS-9" value="role" style="ellipse;whiteSpace=wrap;html=1;align=center;" vertex="1" parent="1">
          <mxGeometry x="730" y="220" width="100" height="40" as="geometry" />
        </mxCell>
        <mxCell id="kQrc4dePowJOGRrl5MvS-10" value="email" style="ellipse;whiteSpace=wrap;html=1;align=center;" vertex="1" parent="1">
          <mxGeometry x="630" y="190" width="100" height="40" as="geometry" />
        </mxCell>
        <mxCell id="kQrc4dePowJOGRrl5MvS-11" value="name" style="ellipse;whiteSpace=wrap;html=1;align=center;" vertex="1" parent="1">
          <mxGeometry x="510" y="190" width="100" height="40" as="geometry" />
        </mxCell>
        <mxCell id="kQrc4dePowJOGRrl5MvS-12" value="id" style="ellipse;whiteSpace=wrap;html=1;align=center;fontStyle=4;" vertex="1" parent="1">
          <mxGeometry x="460" y="250" width="100" height="40" as="geometry" />
        </mxCell>
        <mxCell id="kQrc4dePowJOGRrl5MvS-13" value="student/&lt;div&gt;normal user&lt;/div&gt;" style="rounded=1;arcSize=10;whiteSpace=wrap;html=1;align=center;" vertex="1" parent="1">
          <mxGeometry x="720" y="410" width="100" height="40" as="geometry" />
        </mxCell>
        <mxCell id="kQrc4dePowJOGRrl5MvS-14" value="admin" style="rounded=1;arcSize=10;whiteSpace=wrap;html=1;align=center;" vertex="1" parent="1">
          <mxGeometry x="470" y="410" width="100" height="40" as="geometry" />
        </mxCell>
        <mxCell id="kQrc4dePowJOGRrl5MvS-15" value="faculty" style="rounded=1;arcSize=10;whiteSpace=wrap;html=1;align=center;" vertex="1" parent="1">
          <mxGeometry x="590" y="410" width="100" height="40" as="geometry" />
        </mxCell>
        <mxCell id="kQrc4dePowJOGRrl5MvS-16" value="d" style="ellipse;whiteSpace=wrap;html=1;aspect=fixed;" vertex="1" parent="1">
          <mxGeometry x="620" y="340" width="40" height="40" as="geometry" />
        </mxCell>
        <mxCell id="kQrc4dePowJOGRrl5MvS-17" value="" style="endArrow=none;html=1;rounded=0;entryX=0.392;entryY=1.055;entryDx=0;entryDy=0;entryPerimeter=0;exitX=0;exitY=0;exitDx=0;exitDy=0;" edge="1" parent="1" source="kQrc4dePowJOGRrl5MvS-16" target="kQrc4dePowJOGRrl5MvS-8">
          <mxGeometry width="50" height="50" relative="1" as="geometry">
            <mxPoint x="400" y="410" as="sourcePoint" />
            <mxPoint x="450" y="360" as="targetPoint" />
          </mxGeometry>
        </mxCell>
        <mxCell id="kQrc4dePowJOGRrl5MvS-18" value="" style="endArrow=none;html=1;rounded=0;entryX=0.656;entryY=1.075;entryDx=0;entryDy=0;entryPerimeter=0;exitX=1;exitY=0;exitDx=0;exitDy=0;" edge="1" parent="1" source="kQrc4dePowJOGRrl5MvS-16" target="kQrc4dePowJOGRrl5MvS-8">
          <mxGeometry width="50" height="50" relative="1" as="geometry">
            <mxPoint x="400" y="410" as="sourcePoint" />
            <mxPoint x="450" y="360" as="targetPoint" />
          </mxGeometry>
        </mxCell>
        <mxCell id="kQrc4dePowJOGRrl5MvS-19" value="" style="endArrow=none;html=1;rounded=0;entryX=0.5;entryY=1;entryDx=0;entryDy=0;" edge="1" parent="1" target="kQrc4dePowJOGRrl5MvS-16">
          <mxGeometry width="50" height="50" relative="1" as="geometry">
            <mxPoint x="640" y="410" as="sourcePoint" />
            <mxPoint x="690" y="360" as="targetPoint" />
          </mxGeometry>
        </mxCell>
        <mxCell id="kQrc4dePowJOGRrl5MvS-20" value="" style="endArrow=none;html=1;rounded=0;entryX=0.5;entryY=1;entryDx=0;entryDy=0;" edge="1" parent="1" target="kQrc4dePowJOGRrl5MvS-16">
          <mxGeometry width="50" height="50" relative="1" as="geometry">
            <mxPoint x="760" y="410" as="sourcePoint" />
            <mxPoint x="810" y="360" as="targetPoint" />
          </mxGeometry>
        </mxCell>
        <mxCell id="kQrc4dePowJOGRrl5MvS-21" value="" style="endArrow=none;html=1;rounded=0;entryX=0.5;entryY=1;entryDx=0;entryDy=0;" edge="1" parent="1" target="kQrc4dePowJOGRrl5MvS-16">
          <mxGeometry width="50" height="50" relative="1" as="geometry">
            <mxPoint x="530" y="410" as="sourcePoint" />
            <mxPoint x="580" y="360" as="targetPoint" />
          </mxGeometry>
        </mxCell>
        <mxCell id="kQrc4dePowJOGRrl5MvS-22" value="" style="endArrow=none;html=1;rounded=0;exitX=0.972;exitY=0.735;exitDx=0;exitDy=0;exitPerimeter=0;" edge="1" parent="1" source="kQrc4dePowJOGRrl5MvS-12">
          <mxGeometry width="50" height="50" relative="1" as="geometry">
            <mxPoint x="540" y="340" as="sourcePoint" />
            <mxPoint x="590" y="290" as="targetPoint" />
          </mxGeometry>
        </mxCell>
        <mxCell id="kQrc4dePowJOGRrl5MvS-24" value="" style="endArrow=none;html=1;rounded=0;entryX=0.5;entryY=0;entryDx=0;entryDy=0;exitX=0.5;exitY=1;exitDx=0;exitDy=0;" edge="1" parent="1" source="kQrc4dePowJOGRrl5MvS-11" target="kQrc4dePowJOGRrl5MvS-8">
          <mxGeometry width="50" height="50" relative="1" as="geometry">
            <mxPoint x="580" y="265" as="sourcePoint" />
            <mxPoint x="630" y="215" as="targetPoint" />
          </mxGeometry>
        </mxCell>
        <mxCell id="kQrc4dePowJOGRrl5MvS-25" value="" style="endArrow=none;html=1;rounded=0;entryX=0.5;entryY=1;entryDx=0;entryDy=0;exitX=1;exitY=0.5;exitDx=0;exitDy=0;" edge="1" parent="1" source="kQrc4dePowJOGRrl5MvS-8" target="kQrc4dePowJOGRrl5MvS-9">
          <mxGeometry width="50" height="50" relative="1" as="geometry">
            <mxPoint x="690" y="310" as="sourcePoint" />
            <mxPoint x="740" y="260" as="targetPoint" />
          </mxGeometry>
        </mxCell>
        <mxCell id="kQrc4dePowJOGRrl5MvS-26" value="" style="endArrow=none;html=1;rounded=0;entryX=0.5;entryY=1;entryDx=0;entryDy=0;" edge="1" parent="1" target="kQrc4dePowJOGRrl5MvS-10">
          <mxGeometry width="50" height="50" relative="1" as="geometry">
            <mxPoint x="630" y="270" as="sourcePoint" />
            <mxPoint x="680" y="220" as="targetPoint" />
          </mxGeometry>
        </mxCell>
        <mxCell id="kQrc4dePowJOGRrl5MvS-27" value="" style="endArrow=none;html=1;rounded=0;entryX=0;entryY=0;entryDx=0;entryDy=0;exitX=1;exitY=1;exitDx=0;exitDy=0;" edge="1" parent="1" source="kQrc4dePowJOGRrl5MvS-6" target="kQrc4dePowJOGRrl5MvS-1">
          <mxGeometry width="50" height="50" relative="1" as="geometry">
            <mxPoint x="140" y="295" as="sourcePoint" />
            <mxPoint x="190" y="245" as="targetPoint" />
          </mxGeometry>
        </mxCell>
        <mxCell id="kQrc4dePowJOGRrl5MvS-28" value="" style="endArrow=none;html=1;rounded=0;entryX=0;entryY=0.5;entryDx=0;entryDy=0;exitX=1;exitY=0.5;exitDx=0;exitDy=0;" edge="1" parent="1" source="kQrc4dePowJOGRrl5MvS-4" target="kQrc4dePowJOGRrl5MvS-1">
          <mxGeometry width="50" height="50" relative="1" as="geometry">
            <mxPoint x="150" y="325" as="sourcePoint" />
            <mxPoint x="200" y="275" as="targetPoint" />
          </mxGeometry>
        </mxCell>
        <mxCell id="kQrc4dePowJOGRrl5MvS-29" value="" style="endArrow=none;html=1;rounded=0;entryX=0.5;entryY=1;entryDx=0;entryDy=0;exitX=0.25;exitY=0;exitDx=0;exitDy=0;" edge="1" parent="1" source="kQrc4dePowJOGRrl5MvS-1" target="kQrc4dePowJOGRrl5MvS-7">
          <mxGeometry width="50" height="50" relative="1" as="geometry">
            <mxPoint x="190" y="270" as="sourcePoint" />
            <mxPoint x="240" y="220" as="targetPoint" />
          </mxGeometry>
        </mxCell>
        <mxCell id="kQrc4dePowJOGRrl5MvS-30" value="" style="endArrow=none;html=1;rounded=0;exitX=0.75;exitY=0;exitDx=0;exitDy=0;entryX=0.5;entryY=1;entryDx=0;entryDy=0;" edge="1" parent="1" source="kQrc4dePowJOGRrl5MvS-1" target="kQrc4dePowJOGRrl5MvS-5">
          <mxGeometry width="50" height="50" relative="1" as="geometry">
            <mxPoint x="240" y="270" as="sourcePoint" />
            <mxPoint x="290" y="220" as="targetPoint" />
          </mxGeometry>
        </mxCell>
        <mxCell id="kQrc4dePowJOGRrl5MvS-31" value="" style="endArrow=none;html=1;rounded=0;" edge="1" parent="1">
          <mxGeometry width="50" height="50" relative="1" as="geometry">
            <mxPoint x="180" y="360" as="sourcePoint" />
            <mxPoint x="230" y="310" as="targetPoint" />
          </mxGeometry>
        </mxCell>
        <mxCell id="kQrc4dePowJOGRrl5MvS-32" value="" style="endArrow=none;html=1;rounded=0;entryX=0.368;entryY=0.105;entryDx=0;entryDy=0;exitX=0.75;exitY=1;exitDx=0;exitDy=0;entryPerimeter=0;" edge="1" parent="1" source="kQrc4dePowJOGRrl5MvS-1" target="kQrc4dePowJOGRrl5MvS-3">
          <mxGeometry width="50" height="50" relative="1" as="geometry">
            <mxPoint x="310" y="340" as="sourcePoint" />
            <mxPoint x="360" y="290" as="targetPoint" />
          </mxGeometry>
        </mxCell>
        <mxCell id="kQrc4dePowJOGRrl5MvS-33" value="course_description" style="ellipse;whiteSpace=wrap;html=1;align=center;" vertex="1" parent="1">
          <mxGeometry x="325" y="260" width="115" height="40" as="geometry" />
        </mxCell>
        <mxCell id="kQrc4dePowJOGRrl5MvS-34" value="" style="endArrow=none;html=1;rounded=0;exitX=1;exitY=0.5;exitDx=0;exitDy=0;entryX=0;entryY=0.5;entryDx=0;entryDy=0;" edge="1" parent="1" source="kQrc4dePowJOGRrl5MvS-1" target="kQrc4dePowJOGRrl5MvS-33">
          <mxGeometry width="50" height="50" relative="1" as="geometry">
            <mxPoint x="290" y="350" as="sourcePoint" />
            <mxPoint x="340" y="300" as="targetPoint" />
          </mxGeometry>
        </mxCell>
        <mxCell id="kQrc4dePowJOGRrl5MvS-35" value="Adds" style="shape=rhombus;perimeter=rhombusPerimeter;whiteSpace=wrap;html=1;align=center;" vertex="1" parent="1">
          <mxGeometry x="290" y="490" width="120" height="60" as="geometry" />
        </mxCell>
        <mxCell id="kQrc4dePowJOGRrl5MvS-36" value="" style="endArrow=none;html=1;rounded=0;entryX=0.364;entryY=1.015;entryDx=0;entryDy=0;entryPerimeter=0;" edge="1" parent="1" source="kQrc4dePowJOGRrl5MvS-35" target="kQrc4dePowJOGRrl5MvS-1">
          <mxGeometry width="50" height="50" relative="1" as="geometry">
            <mxPoint x="190" y="390" as="sourcePoint" />
            <mxPoint x="240" y="340" as="targetPoint" />
          </mxGeometry>
        </mxCell>
        <mxCell id="kQrc4dePowJOGRrl5MvS-37" value="" style="endArrow=none;html=1;rounded=0;entryX=0;entryY=1;entryDx=0;entryDy=0;" edge="1" parent="1" target="kQrc4dePowJOGRrl5MvS-14">
          <mxGeometry width="50" height="50" relative="1" as="geometry">
            <mxPoint x="375" y="500" as="sourcePoint" />
            <mxPoint x="425" y="450" as="targetPoint" />
          </mxGeometry>
        </mxCell>
        <mxCell id="kQrc4dePowJOGRrl5MvS-38" value="" style="endArrow=none;html=1;rounded=0;entryX=0.5;entryY=1;entryDx=0;entryDy=0;" edge="1" parent="1" source="kQrc4dePowJOGRrl5MvS-35" target="kQrc4dePowJOGRrl5MvS-1">
          <mxGeometry width="50" height="50" relative="1" as="geometry">
            <mxPoint x="220" y="490" as="sourcePoint" />
            <mxPoint x="270" y="440" as="targetPoint" />
          </mxGeometry>
        </mxCell>
        <mxCell id="kQrc4dePowJOGRrl5MvS-39" value="" style="endArrow=none;html=1;rounded=0;entryX=0;entryY=0.75;entryDx=0;entryDy=0;" edge="1" parent="1" source="kQrc4dePowJOGRrl5MvS-35" target="kQrc4dePowJOGRrl5MvS-14">
          <mxGeometry width="50" height="50" relative="1" as="geometry">
            <mxPoint x="370" y="500" as="sourcePoint" />
            <mxPoint x="420" y="450" as="targetPoint" />
          </mxGeometry>
        </mxCell>
        <mxCell id="kQrc4dePowJOGRrl5MvS-41" value="create" style="shape=rhombus;perimeter=rhombusPerimeter;whiteSpace=wrap;html=1;align=center;" vertex="1" parent="1">
          <mxGeometry x="520" y="580" width="120" height="60" as="geometry" />
        </mxCell>
        <mxCell id="kQrc4dePowJOGRrl5MvS-42" value="" style="endArrow=none;html=1;rounded=0;" edge="1" parent="1">
          <mxGeometry width="50" height="50" relative="1" as="geometry">
            <mxPoint x="400" y="510" as="sourcePoint" />
            <mxPoint x="450" y="460" as="targetPoint" />
          </mxGeometry>
        </mxCell>
        <mxCell id="kQrc4dePowJOGRrl5MvS-43" value="" style="endArrow=none;html=1;rounded=0;entryX=0.5;entryY=1;entryDx=0;entryDy=0;exitX=0.5;exitY=0;exitDx=0;exitDy=0;" edge="1" parent="1" source="kQrc4dePowJOGRrl5MvS-41" target="kQrc4dePowJOGRrl5MvS-15">
          <mxGeometry width="50" height="50" relative="1" as="geometry">
            <mxPoint x="580" y="575" as="sourcePoint" />
            <mxPoint x="630" y="525" as="targetPoint" />
          </mxGeometry>
        </mxCell>
      </root>
    </mxGraphModel>
  </diagram>
</mxfile>
